<svg xmlns="http://www.w3.org/2000/svg"
shape-rendering="geometricPrecision"
width="4000" height="4000" viewBox="0 0 1024 1024">
  <metadata>null</metadata>

<path d="
M 72.902 590.263
C 79.932 590.038 86.972 590.09 94.011 590.081
C 102.38 590.071 110.319 589.956 117.353 595.192
C 129.886 604.521 129.307 625.649 116.269 634.219
C 109.883 638.417 102.381 638.655 95.003 638.632
C 92.127 638.623 89.173 638.811 86.311 638.643
C 86.381 645.839 86.213 653.045 86.311 660.243
C 82.014 660.01 77.548 660.041 73.246 660.165
C 72.616 658.873 73.116 656.96 73.036 655.546
C 72.746 650.383 72.941 645.163 72.936 639.991
C 72.921 623.439 73.378 606.803 72.902 590.263 Z
M 86.335 602.646
C 86.23 610.532 86.98 618.703 86.349 626.548
C 88.459 626.851 90.943 626.51 93.099 626.508
C 97.765 626.504 103.377 627.193 107.603 624.784
C 114.52 620.842 115.546 609.061 108.417 604.612
C 105.177 602.589 101.702 602.633 98.005 602.599
C 94.112 602.564 90.225 602.496 86.335 602.646 Z"
opacity="1" fill="rgb(16,22,53)" fill-rule="evenodd" />
<path d="
M 141.641 590.196
C 148.831 589.621 156.173 590.063 163.384 590.059
C 172.652 590.054 182.828 589.219 190.452 595.495
C 202.534 605.44 200.215 631.365 182.867 634.28
C 187.08 640.016 190.843 646.003 194.748 651.951
C 196.492 654.609 198.611 657.232 200.224 659.91
C 199.307 660.185 197.966 659.933 196.999 659.949
C 194.338 659.993 191.667 659.972 189.006 659.895
C 187.704 659.858 185.889 660.254 184.684 659.811
C 182.705 657.586 181.277 654.753 179.604 652.292
C 176.012 647.007 172.535 641.648 169.002 636.325
C 168.074 635.808 166.232 636.155 165.139 636.146
C 161.805 636.119 158.511 635.92 155.182 636.141
C 154.763 640.199 155.095 644.416 155.085 648.495
C 155.075 652.307 154.719 656.374 155.165 660.157
C 150.796 659.642 146.187 660.158 141.787 659.985
C 141.163 657.875 141.562 655.196 141.557 652.999
C 141.546 648 141.573 643 141.573 638.001
C 141.573 622.066 141.544 606.127 141.641 590.196 Z
M 154.935 602.757
C 154.889 609.752 154.995 616.759 155.029 623.752
C 159.839 623.585 164.692 623.735 169.507 623.752
C 172.602 623.764 175.984 623.956 178.88 622.68
C 185.928 619.574 186.795 608.2 179.981 604.229
C 177.061 602.527 173.606 602.689 170.343 602.69
C 165.209 602.692 160.063 602.776 154.935 602.757 Z"
opacity="1" fill="rgb(15,22,54)" fill-rule="evenodd" />
<path d="
M 212.928 619.595
C 214.123 610.8 218.833 602.393 225.668 596.721
C 236.731 587.542 254.05 586.131 266.468 593.276
C 270.466 595.577 273.865 598.533 276.713 602.159
C 279.605 605.84 281.721 610.144 282.968 614.652
C 284.38 619.754 284.852 625.182 284.115 630.437
C 283.549 634.474 282.326 638.485 280.415 642.089
C 270.652 660.491 248.13 666.79 229.97 656.832
C 226.253 654.794 223.017 651.865 220.399 648.54
C 217.547 644.918 215.488 640.847 214.182 636.429
C 212.578 631.006 212.166 625.199 212.928 619.595 Z
M 226.45 620.607
C 225.311 629.417 227.683 639.177 235.101 644.693
C 243.995 651.306 257.242 650.196 264.816 642.083
C 267.995 638.677 269.895 634.063 270.518 629.481
C 271.956 618.916 267.34 607.707 257.388 603.007
C 244.043 596.704 228.286 606.417 226.45 620.607 Z"
opacity="1" fill="rgb(13,17,44)" fill-rule="evenodd" />
<path d="
M 301.835 590.234
C 307.441 589.206 313.831 589.843 319.512 589.996
C 327.633 590.214 336.065 589.115 343.397 593.387
C 357.771 601.762 359.414 623.285 346.039 633.476
C 339.887 638.163 331.898 638.445 324.504 638.408
C 321.6 638.394 318.041 637.865 315.213 638.529
C 315.067 642.843 315.222 647.184 315.226 651.501
C 315.229 654.367 314.956 657.438 315.248 660.278
C 312.086 659.892 308.683 660.237 305.495 660.209
C 304.433 660.2 302.861 660.506 301.888 660.105
C 302.094 636.832 301.19 613.498 301.835 590.234 Z
M 315.354 602.423
C 314.966 604.215 315.202 606.216 315.195 608.044
C 315.182 611.53 315.187 615.015 315.2 618.5
C 315.209 620.95 314.714 624.115 315.354 626.468
C 321.894 625.743 330.072 628.166 336.113 624.792
C 343.679 620.567 344.027 608.584 336.508 604.07
C 333.318 602.155 329.407 602.398 325.823 602.392
C 322.34 602.386 318.828 602.158 315.354 602.423 Z"
opacity="1" fill="rgb(12,16,38)" fill-rule="evenodd" />
<path d="
M 370.717 590.211
C 387.63 589.012 404.801 590.435 421.742 590.055
C 422.401 593.941 422.178 598.748 421.815 602.673
C 409.149 602.975 396.428 602.1 383.772 602.74
C 383.527 608.042 383.977 613.388 383.724 618.679
C 384.236 619.084 385.444 618.813 386.111 618.816
C 388.241 618.827 390.373 618.816 392.504 618.825
C 400.669 618.86 408.838 618.695 417.002 618.847
C 417.565 619.737 417.254 621.469 417.251 622.498
C 417.243 625.055 416.809 628.23 417.292 630.716
C 410.033 630.608 402.758 630.718 395.497 630.723
C 391.761 630.726 387.568 630.197 383.908 630.983
C 383.691 636.626 383.81 642.276 383.904 647.922
C 389.839 647.332 396.04 647.806 402.005 647.79
C 408.622 647.773 415.439 647.291 422.035 647.85
C 421.958 652.006 422.495 656.204 422.214 660.376
C 409.835 660.696 397.389 660.347 385.002 660.344
C 380.35 660.343 375.619 660.07 370.977 660.383
C 370.239 659.258 370.774 656.377 370.756 655.007
C 370.697 650.507 370.736 646.005 370.73 641.504
C 370.705 624.407 370.734 607.307 370.717 590.211 Z"
opacity="1" fill="rgb(16,23,54)" fill-rule="evenodd" />
<path d="
M 553.987 373.958
C 552.433 374.34 550.579 375.882 549.163 376.722
C 544.978 379.205 540.932 381.898 536.785 384.44
C 535.12 385.462 531.853 386.681 530.872 388.373
C 529.48 388.15 528.189 387.139 526.895 386.605
C 524.724 385.71 522.247 385.055 519.957 384.541
C 511.332 382.602 501.982 383.097 493.534 385.57
C 460.441 395.254 445.092 435.985 462.879 465.296
C 467.38 472.713 473.982 479.346 481.668 483.45
C 484.392 484.903 487.287 486.137 490.194 487.174
C 491.391 487.6 492.84 487.805 493.909 488.491
C 491.992 497.014 489.316 505.392 486.999 513.815
C 486.407 515.967 485.782 518.108 485.235 520.274
C 485.047 521.017 484.464 522.222 484.835 522.897
C 493.381 522.028 502.412 522.801 511.004 522.817
C 517.817 522.829 525.182 522.023 531.932 522.867
C 530.176 514.947 527.347 507.17 525.056 499.387
C 524.084 496.085 522.253 492.192 522.161 488.755
C 527.428 486.632 532.684 485.17 537.546 482.08
C 539.123 481.078 540.637 479.988 542.088 478.811
C 542.739 478.282 543.612 477.42 544.454 477.414
C 546.183 483.737 548.055 490.064 549.874 496.371
C 550.54 498.678 551.756 501.279 552.12 503.598
C 552.951 507.976 554.88 512.339 556.147 516.621
C 559.18 526.872 562.123 537.22 565.451 547.367
C 549.879 546.6 534.099 547.375 518.505 547.359
C 496.344 547.338 474.101 546.783 451.949 547.392
C 451.397 546.705 452.329 545.157 452.574 544.359
C 453.439 541.543 454.239 538.697 455.076 535.871
C 457.427 527.931 459.883 520.008 462.059 512.018
C 462.859 509.077 464.835 505.308 464.778 502.262
C 455.895 496.243 448.044 488.601 442.371 479.449
C 423.686 449.304 427.379 409.867 451.123 383.615
C 455.633 378.629 461.133 374.215 466.844 370.674
C 474.976 365.632 484.038 362.077 493.445 360.301
C 503.649 358.375 513.969 358.427 524.142 360.522
C 535.003 362.76 545.066 367.444 553.987 373.958 Z"
opacity="1" fill="rgb(14,20,48)" fill-rule="evenodd" />
<path d="
M 438.317 590.228
C 443.276 589.335 448.65 589.913 453.668 589.924
C 464.895 589.947 478.924 587.838 488.107 595.796
C 500.412 606.459 496.19 631.117 479.241 634.264
C 484.246 640.328 488.351 647.29 492.685 653.845
C 493.72 655.412 494.857 656.914 495.867 658.497
C 496.063 658.804 496.994 659.842 496.843 660.136
C 493.114 660.419 489.255 660.122 485.512 660.104
C 484.153 660.097 481.897 660.504 480.691 659.824
C 478.676 657.624 477.297 654.752 475.675 652.26
C 472.258 647.008 469.012 641.638 465.354 636.55
C 464.575 635.974 462.956 636.307 462.004 636.298
C 458.719 636.266 454.978 635.778 451.757 636.494
C 451.673 644.431 451.802 652.384 451.641 660.316
C 447.324 660.058 442.789 660.088 438.476 660.377
C 437.895 660.006 438.291 657.045 438.297 656.314
C 438.326 652.045 438.301 647.774 438.301 643.505
C 438.301 625.755 437.96 607.973 438.317 590.228 Z
M 451.751 602.802
C 451.205 609.876 452.097 617.02 451.713 624.095
C 456.642 623.846 461.595 623.957 466.534 623.938
C 470.267 623.923 473.996 623.892 477.246 621.818
C 483.299 617.954 482.715 607.779 476.567 604.347
C 473.332 602.541 469.635 602.727 466.043 602.692
C 461.317 602.646 456.458 602.346 451.751 602.802 Z"
opacity="1" fill="rgb(14,19,45)" fill-rule="evenodd" />
<path d="
M 465.894 430.042
C 468.347 424.055 469.619 418.104 473.038 412.476
C 473.915 411.034 475.413 407.62 477.44 407.811
C 478.184 411.252 478.235 414.927 478.51 418.442
C 478.917 423.65 479.295 428.851 479.453 434.073
C 479.515 436.138 479.553 438.224 479.685 440.284
C 479.733 441.038 479.987 442.308 479.607 443.006
C 477.98 442.056 476.692 440.444 475.262 439.217
C 472.102 436.507 468.926 433.84 465.801 431.091
C 465.778 430.383 465.747 430.733 465.894 430.042 Z"
opacity="1" fill="rgb(231,117,43)" fill-rule="evenodd" />
<path d="
M 465.901 439.922
C 468.688 441.174 471.176 444.107 473.585 446.009
C 480.271 451.287 486.441 457.005 492.886 462.539
C 491.777 462.881 490.312 462.666 489.138 462.862
C 485.621 463.447 482.014 464.061 478.44 464.081
C 477.053 464.088 475.119 464.405 473.83 463.899
C 470.751 458.312 467.778 452.3 466.432 446.017
C 466.164 444.764 464.984 440.824 465.901 439.922 Z"
opacity="1" fill="rgb(232,116,41)" fill-rule="evenodd" />
<path d="
M 481.171 470.452
C 483.787 469.344 486.812 469.104 489.605 468.683
C 494.458 467.95 499.321 467.34 504.186 466.683
C 507.584 466.224 511.939 465.105 515.325 465.784
C 515.131 466.218 514.769 466.575 514.453 466.924
C 511.124 471.603 507.48 476.918 503.275 480.833
C 501.894 481.319 499.204 479.773 497.87 479.277
C 493.798 477.763 489.737 476.133 485.899 474.093
C 484.197 473.188 482.047 472.265 481.171 470.452 Z"
opacity="1" fill="rgb(232,120,44)" fill-rule="evenodd" />
<path d="
M 482.434 444.617
C 483.311 438.509 482.207 432.07 483.264 425.987
C 486.405 422.192 490.876 418.85 494.596 415.604
C 496.318 414.102 498.008 411.835 500.08 410.853
C 504.749 411.003 509.46 411.686 514.146 411.9
C 516.438 412.005 519.895 411.65 521.974 412.506
C 525.288 415.984 528.308 419.709 531.444 423.345
C 532.432 424.489 534.783 426.219 535.191 427.637
C 536.244 431.301 535.211 436.247 534.987 439.999
C 534.818 442.845 535.205 445.939 534.729 448.739
C 529.107 452.298 525.257 458.242 519.635 461.885
C 518.214 462.806 515.256 462.579 513.568 462.656
C 510.253 462.806 506.931 462.793 503.618 462.995
C 501.577 463.12 499.26 463.61 497.234 463.27
C 493.384 460.263 490.068 456.092 486.733 452.527
C 485.305 451 483.096 449.066 482.385 447.076
C 482.272 446.25 482.368 445.445 482.434 444.617 Z"
opacity="1" fill="rgb(231,120,42)" fill-rule="evenodd" />
<path d="
M 482.704 402.412
C 484.404 400.731 486.622 399.744 488.764 398.752
C 494.038 396.311 501.277 393.301 507.23 394.204
C 507.192 394.726 506.72 395.022 506.397 395.405
C 501.152 402.079 495.64 408.471 489.479 414.327
C 487.955 415.776 486.498 417.249 485.081 418.801
C 484.817 419.091 484.083 420.072 483.699 419.74
C 483.407 413.972 482.863 408.187 482.704 402.412 Z"
opacity="1" fill="rgb(232,116,42)" fill-rule="evenodd" />
<path d="
M 503.784 407.644
C 506.761 404.72 509.402 401.262 512.189 398.138
C 513.178 397.03 513.895 395.234 515.104 394.424
C 523.902 396.32 531.894 400.706 538.996 406.139
C 537.216 407.13 533.6 406.759 531.586 406.904
C 525.143 407.37 518.664 407.597 512.207 407.845
C 510.145 407.924 508.081 407.835 506.02 407.892
C 505.33 407.912 504.235 408.331 503.784 407.644 Z"
opacity="1" fill="rgb(232,118,46)" fill-rule="evenodd" />
<path d="
M 512.512 480.074
C 514.546 475.998 517.726 472.646 520.52 469.094
C 524.53 463.996 528.701 458.232 533.712 454.081
C 534.56 454.544 534.328 457.037 534.405 457.948
C 534.748 461.964 536.286 466.909 535.592 470.887
C 534.452 472.617 532.275 473.619 530.511 474.576
C 526.425 476.791 522.066 478.84 517.542 479.96
C 515.819 480.387 513.971 480.944 512.189 480.629
C 512.296 480.444 512.404 480.259 512.512 480.074 Z"
opacity="1" fill="rgb(232,118,43)" fill-rule="evenodd" />
<path d="
M 527.187 412.89
C 531.149 412.716 535.086 412.362 539.056 412.299
C 540.429 412.277 542.724 411.861 543.938 412.469
C 546.231 419.218 550.193 425.31 551.408 432.487
C 549.041 432.196 546.407 429.56 544.586 428.133
C 540.428 424.871 536.293 421.564 532.313 418.081
C 530.646 416.623 528.253 414.812 527.187 412.89 Z"
opacity="1" fill="rgb(229,120,47)" fill-rule="evenodd" />
<path d="
M 553.987 373.958
C 556.245 374.988 558.191 377.123 560.014 378.763
C 564.392 382.703 568.314 387.094 571.776 391.856
C 589.964 416.875 591.072 450.573 576.15 477.314
C 572.242 484.315 566.963 490.392 561.039 495.763
C 559.294 497.345 557.453 498.825 555.536 500.191
C 554.291 501.079 552.633 502.086 552.12 503.598
C 551.756 501.279 550.54 498.678 549.874 496.371
C 548.055 490.064 546.183 483.737 544.454 477.414
C 544.609 476.509 545.581 475.854 546.231 475.234
C 547.6 473.926 548.981 472.57 550.193 471.114
C 554.075 466.451 557.072 460.999 559.116 455.296
C 568.323 429.606 556.126 399.4 530.872 388.373
C 531.853 386.681 535.12 385.462 536.785 384.44
C 540.932 381.898 544.978 379.205 549.163 376.722
C 550.579 375.882 552.433 374.34 553.987 373.958 Z"
opacity="1" fill="rgb(231,119,42)" fill-rule="evenodd" />
<path d="
M 536.932 659.054
C 542.36 645.885 548.322 632.929 553.708 619.738
C 556.163 613.724 558.812 607.784 561.221 601.752
C 562.779 597.852 564.131 593.736 566.031 589.991
C 569.663 589.308 574.298 589.646 577.984 589.914
C 578.451 592.394 580.315 595.137 581.308 597.497
C 583.872 603.589 586.564 609.633 589.189 615.703
C 593.281 625.163 597.095 634.745 601.183 644.204
C 603.436 649.417 605.28 654.935 607.873 659.973
C 607.773 660.29 604.908 660.084 604.496 660.079
C 601.006 660.043 597.495 659.927 594.012 659.972
C 591.418 655.157 589.997 649.514 587.879 644.469
C 587.213 644.11 586.244 644.279 585.502 644.278
C 583.668 644.276 581.834 644.259 580 644.253
C 574.667 644.235 569.334 644.296 564.002 644.24
C 561.746 644.216 558.585 643.601 556.445 644.301
C 554.485 649.519 552.577 654.731 550.27 659.802
C 549.279 660.196 547.591 659.904 546.502 659.906
C 543.352 659.911 540.142 659.717 537.001 659.895
C 536.607 659.457 536.692 659.725 536.932 659.054 Z
M 561.988 631.098
C 561.66 631.843 561.633 631.522 561.792 632.044
C 568.81 632.328 576.271 631.23 583.219 632.2
C 580.321 625.966 577.949 619.422 575.294 613.065
C 574.563 611.316 573.778 609.591 573.057 607.838
C 572.709 606.993 572.735 606.21 572.08 605.515
C 567.885 613.542 565.543 622.752 561.988 631.098 Z"
opacity="1" fill="rgb(235,119,42)" fill-rule="evenodd" />
<path d="
M 538.455 432.609
C 538.459 432.265 538.462 431.922 538.466 431.578
C 543.658 433.608 547.883 438.526 552.152 441.969
C 551.332 448.186 548.89 454.332 545.949 459.817
C 545.213 461.188 543.548 464.774 542.059 465.36
C 540.868 460.562 540.765 455.442 540.145 450.542
C 539.413 444.769 537.973 438.441 538.455 432.609 Z"
opacity="1" fill="rgb(229,116,43)" fill-rule="evenodd" />
<path d="
M 616.414 619.094
C 617.592 614.089 618.861 609.465 621.694 605.08
C 629.426 593.117 644.372 586.625 658.378 589.137
C 664.313 590.202 670.102 592.494 674.754 596.414
C 675.935 597.409 678.512 599.289 678.846 600.866
C 677.591 602.798 675.256 604.395 673.673 606.101
C 672.675 607.175 671.764 608.945 670.518 609.708
C 668.844 608.849 667.511 606.869 665.962 605.74
C 662.45 603.181 658.381 601.594 654.046 601.158
C 651.297 600.881 648.387 601.054 645.737 601.866
C 626.918 607.63 623.1 635.226 639.947 645.755
C 642.295 647.223 644.938 648.294 647.653 648.85
C 650.835 649.501 653.983 649.476 657.147 648.737
C 662.427 647.505 665.867 644.395 669.922 641.072
C 671.174 641.638 672.14 642.792 673.158 643.7
C 674.957 645.303 677.135 647.004 678.486 649.014
C 677.572 651.181 674.376 653.19 672.562 654.614
C 663.662 661.6 651.967 663.357 641.182 660.297
C 623.346 655.237 613.885 636.861 616.414 619.094 Z"
opacity="1" fill="rgb(235,118,42)" fill-rule="evenodd" />
<path d="
M 690.393 620.602
C 691.186 616.48 692.023 612.314 693.958 608.535
C 700.294 596.163 712.918 588.499 726.827 588.736
C 734.346 588.864 741.407 591.264 747.567 595.53
C 749.1 596.592 750.501 597.88 751.812 599.202
C 752.232 599.627 752.873 600.16 752.891 600.796
C 751.374 603.274 748.515 605.283 746.508 607.385
C 745.862 608.06 745.116 609.411 744.25 609.768
C 743.197 609.124 742.46 607.703 741.47 606.888
C 738.084 604.1 734.104 602.093 729.747 601.439
C 726.732 600.986 723.5 600.981 720.552 601.834
C 701.055 607.476 697.127 636.377 714.897 646.613
C 717.275 647.983 720.046 648.807 722.76 649.166
C 725.987 649.591 729.102 649.269 732.213 648.326
C 736.812 646.93 740.154 644.194 743.61 641.003
C 744.629 640.927 745.489 642.142 746.212 642.787
C 748.25 644.607 750.875 646.291 752.493 648.509
C 751.409 651.097 747.664 653.524 745.463 655.123
C 736.457 661.665 724.856 663.237 714.297 659.928
C 697.277 654.595 688.527 637.855 690.393 620.602 Z"
opacity="1" fill="rgb(235,118,41)" fill-rule="evenodd" />
<path d="
M 767.262 590.269
C 772.852 589.48 778.863 590.057 784.506 590.059
C 795.594 590.062 806.683 590.107 817.771 590.107
C 818.145 591.064 817.942 592.456 817.95 593.491
C 817.972 596.425 817.569 599.637 817.97 602.534
C 817.436 602.903 816.022 602.576 815.389 602.574
C 812.927 602.565 810.465 602.559 808.003 602.553
C 798.771 602.533 789.37 602.045 780.162 602.744
C 779.932 608.062 780.298 613.405 780.144 618.719
C 786.58 618.55 793.062 618.772 799.506 618.769
C 803.954 618.767 808.593 618.414 813.019 618.836
C 813.532 622.789 812.828 626.855 813.223 630.798
C 810.94 631.332 807.864 630.817 805.5 630.827
C 800 630.851 794.5 630.877 789 630.87
C 786.906 630.868 784.81 630.841 782.716 630.857
C 782.05 630.862 780.791 630.731 780.218 631.091
C 780.021 636.625 780.415 642.186 780.208 647.712
C 782.85 648.068 785.826 647.666 788.505 647.657
C 795.172 647.634 801.839 647.579 808.506 647.604
C 811.666 647.615 815.003 647.318 818.137 647.703
C 818.111 651.641 817.596 656.314 818.252 660.184
C 801.264 661.001 784.178 659.627 767.18 660.272
C 767.571 650.727 767.231 641.063 767.226 631.504
C 767.219 617.762 767.422 604.009 767.262 590.269 Z"
opacity="1" fill="rgb(233,119,41)" fill-rule="evenodd" />
<path d="
M 829.921 648.964
C 832.178 646.394 833.707 643.286 835.994 640.742
C 837.654 640.952 839.384 642.88 840.781 643.793
C 843.587 645.629 846.576 647.188 849.787 648.178
C 854.618 649.668 860.233 649.84 864.861 647.543
C 869.162 645.409 869.954 639.634 866.716 636.174
C 864.165 633.45 859.604 632.725 856.166 631.747
C 846.282 628.934 834.417 626.366 832.205 614.545
C 831.745 612.086 831.612 609.429 831.985 606.948
C 834.462 590.449 853.698 586.559 867.283 591.293
C 870.369 592.368 873.245 593.783 875.998 595.544
C 877.02 596.197 878.493 596.971 879.026 598.102
C 878.58 600.766 876.169 603.148 874.845 605.455
C 874.317 606.373 873.798 607.721 872.928 608.359
C 871.022 607.678 869.283 605.804 867.456 604.839
C 863.117 602.546 857.629 600.857 852.682 601.549
C 850.729 601.822 848.537 602.495 847.038 603.822
C 843.915 606.59 843.645 611.656 846.801 614.556
C 849.591 617.12 854.238 618.067 857.79 619.018
C 867.134 621.52 877.7 623.952 880.705 634.499
C 881.354 636.775 881.705 639.242 881.573 641.61
C 880.851 654.569 869.181 660.938 857.326 661.228
C 846.596 661.491 837.642 656.755 829.58 650.221
C 829.568 649.313 829.452 649.731 829.921 648.964 Z"
opacity="1" fill="rgb(234,119,42)" fill-rule="evenodd" />
<path d="
M 892.833 650.141
C 894.537 646.874 897.138 643.865 899.188 640.791
C 900.322 640.705 902.146 642.866 903.125 643.485
C 906.677 645.727 910.378 647.895 914.536 648.778
C 919.113 649.751 924.229 649.613 928.345 647.12
C 932.115 644.836 932.135 638.871 929.146 635.951
C 926.371 633.24 921.735 632.602 918.174 631.542
C 909.59 628.989 899.369 626.756 895.868 617.372
C 895.291 615.827 894.938 614.232 894.788 612.591
C 894.543 609.918 894.601 607.103 895.246 604.488
C 898.647 590.695 914.997 587.432 927.029 590.372
C 931 591.342 934.837 593.032 938.298 595.199
C 939.73 596.095 941.981 597.013 941.167 598.992
C 939.902 601.216 938.484 603.348 937.222 605.574
C 936.836 606.253 936.353 607.604 935.587 607.927
C 933.606 607.169 931.805 605.577 929.899 604.588
C 925.8 602.462 920.289 600.657 915.611 601.391
C 909.697 602.32 903.967 608.649 909.263 614.126
C 911.885 616.838 916.485 617.862 920.012 618.818
C 928.59 621.141 938.814 623.293 942.652 632.366
C 943.653 634.731 944.018 637.187 944.172 639.737
C 944.796 650.023 937.78 657.767 928.147 660.215
C 919.215 662.485 910.258 660.92 902.03 657.025
C 898.544 655.375 895.202 653.221 892.833 650.141 Z"
opacity="1" fill="rgb(235,120,42)" fill-rule="evenodd" />

</svg>