<svg xmlns="http://www.w3.org/2000/svg"
shape-rendering="geometricPrecision"
width="4000" height="4000" viewBox="0 0 1024 1024"><rect width="100%" height="100%" fill="#FEFDFD" />
  <metadata>null</metadata>

<path d="
M 45.595 664.632
C 46.488 664.558 47.297 664.614 48.181 664.741
C 48.615 665.335 48.359 666.764 48.355 667.503
C 48.343 669.669 48.364 671.838 48.397 674.003
C 48.411 674.894 48.148 676.369 48.855 676.987
C 52.354 676.663 56.028 676.908 59.546 676.921
C 60.093 676.923 62.909 677.249 63.165 676.901
C 63.298 672.842 63.285 668.773 63.211 664.715
C 64.189 664.654 65.153 664.669 66.132 664.687
C 66.784 671.14 66.06 677.864 66.038 684.335
C 66.03 686.492 66.655 690.711 65.631 692.568
C 64.839 692.896 63.936 693.087 63.277 692.495
C 62.64 688.255 63.294 683.739 63.039 679.461
C 59.351 679.344 55.678 679.524 51.996 679.6
C 50.756 679.625 49.748 679.385 48.571 679.946
C 48 683.989 49.3 688.648 48.319 692.573
C 47.87 692.591 46.462 692.564 46.107 692.344
C 45.579 692.015 45.631 691.001 45.611 690.478
C 45.554 688.994 45.611 687.491 45.613 686.006
C 45.62 678.882 45.533 671.754 45.595 664.632 Z"
opacity="1" fill="rgb(16,21,32)" fill-rule="evenodd" />
<path d="
M 48.242 564.207
C 51.983 563.026 57.102 563.899 61.007 563.899
C 70.577 563.901 82.206 562.14 91.059 566.542
C 105.332 573.637 108.82 591.806 99.863 604.472
C 94.012 612.746 83.746 614.234 74.364 614.467
C 71.692 614.534 69.02 614.55 66.349 614.501
C 65.002 614.477 63.698 614.237 62.512 614.955
C 62.321 619.416 62.276 623.973 62.487 628.436
C 62.606 630.935 63.142 634.357 62.397 636.751
C 58.931 636.726 55.463 636.788 51.995 636.752
C 51.007 636.742 49.231 637.167 48.36 636.714
C 47.919 612.604 47.806 588.317 48.242 564.207 Z
M 62.297 576.679
C 62.717 584.883 62.821 593.526 62.554 601.728
C 67.005 601.425 71.561 601.777 76.025 601.747
C 78.83 601.729 81.746 601.713 84.305 600.401
C 92.798 596.049 93.154 582.489 84.31 578.204
C 81.756 576.967 78.62 576.948 75.835 576.944
C 71.296 576.936 66.831 577.131 62.297 576.679 Z"
opacity="1" fill="rgb(13,19,49)" fill-rule="evenodd" />
<path d="
M 70.927 681.601
C 71.453 679.07 72.148 676.583 74.118 674.754
C 78.357 670.818 84.796 671.876 87.601 676.879
C 88.716 678.867 88.746 681.178 88.76 683.389
C 83.952 683.263 78.962 682.954 74.171 683.381
C 72.588 685.641 76.635 689.005 78.391 689.729
C 81.696 691.091 83.809 689.293 86.435 687.638
C 87.226 687.919 87.877 688.295 88.279 689.063
C 88.05 689.851 87.247 690.225 86.679 690.759
C 84.778 692.541 82.055 693.222 79.501 692.816
C 74.538 692.028 70.398 686.63 70.927 681.601 Z
M 74.028 679.612
C 73.91 680.122 73.818 680.473 73.936 680.99
C 77.896 680.408 82.034 681.352 85.96 680.388
C 86.009 676.21 81.307 673.843 77.71 675.275
C 75.555 676.133 74.923 677.672 74.028 679.612 Z"
opacity="1" fill="rgb(25,29,42)" fill-rule="evenodd" />
<path d="
M 93.127 663.689
C 94.037 663.591 95.202 663.366 96.066 663.708
C 96.53 666.79 96.154 670.195 96.04 673.305
C 95.842 678.715 95.633 684.27 96.342 689.641
C 97.259 690.296 99.022 689.973 100.1 690.495
C 100.264 691.106 100.426 691.585 100.256 692.208
C 98.58 692.33 95.717 693.127 94.355 691.772
C 92.545 689.973 93.151 686.306 93.15 684.005
C 93.147 677.233 93.1 670.457 93.127 663.689 Z"
opacity="1" fill="rgb(20,25,35)" fill-rule="evenodd" />
<path d="
M 103.462 673.043
C 103.501 672.901 103.539 672.758 103.577 672.615
C 105.675 672.506 105.954 673.253 106.229 675.128
C 106.51 675.404 108.907 672.908 109.51 672.616
C 111.522 671.642 114.439 671.891 116.266 673.138
C 122.533 677.417 122.79 689.767 114.904 692.67
C 111.472 693.933 109.119 690.91 105.968 690.906
C 106.029 693.292 106.142 695.69 106.163 698.084
C 106.17 698.898 106.31 700.102 105.77 700.787
C 105.015 700.807 103.997 701.03 103.332 700.607
C 102.683 697.32 103.416 693.649 103.368 690.302
C 103.29 684.749 102.534 678.526 103.462 673.043 Z
M 105.95 682.112
C 105.814 683.765 106.045 685.559 106.903 687.01
C 108.849 690.299 113.556 691.584 116.114 688.185
C 117.155 686.801 117.678 685.056 117.847 683.348
C 118.162 680.156 116.988 675.598 113.475 674.534
C 109.077 673.202 106.249 678.465 105.95 682.112 Z"
opacity="1" fill="rgb(25,29,42)" fill-rule="evenodd" />
<path d="
M 120.904 564.334
C 122.456 563.725 124.337 563.921 125.979 563.917
C 129.154 563.911 132.33 563.923 135.505 563.921
C 148.081 563.916 164.688 561.229 174.163 571.568
C 184.648 583.009 180.71 606.659 164.094 609.961
C 168.208 616.759 173.153 623.291 177.607 629.898
C 178.736 631.572 179.839 633.259 180.905 634.973
C 181.176 635.409 182.133 636.376 182.03 636.788
C 178.378 636.988 174.656 636.78 170.998 636.763
C 169.456 636.756 167.278 637.173 165.84 636.619
C 160.538 628.393 154.679 620.493 149.656 612.093
C 146.362 612.118 143.063 612.048 139.767 612.072
C 138.163 612.083 136.419 612.355 134.84 612.116
C 134.925 617.743 134.88 623.38 134.913 629.01
C 134.928 631.493 134.67 634.168 134.948 636.621
C 132.006 637.577 127.581 636.761 124.498 636.721
C 123.598 636.709 121.691 637.112 120.934 636.662
C 120.441 625.817 120.833 614.853 120.89 603.997
C 120.959 590.777 120.778 577.553 120.904 564.334 Z
M 134.76 577.245
C 134.806 584.494 134.748 591.752 134.942 599
C 137.978 599.436 141.337 599.06 144.419 599.074
C 149.787 599.097 156.318 600.039 161.186 597.266
C 167.021 593.942 167.611 583.378 161.974 579.405
C 158.831 577.19 155.104 577.277 151.417 577.234
C 145.867 577.169 140.307 577.342 134.76 577.245 Z"
opacity="1" fill="rgb(14,20,53)" fill-rule="evenodd" />
<path d="
M 125.363 665.495
C 125.801 664.843 126.268 664.194 126.83 663.644
C 127.786 663.869 128.442 664.226 129.192 664.85
C 129.869 665.952 129.091 668.082 128.221 668.902
C 126.762 669.093 125.606 667.649 125.158 666.435
C 125.186 665.74 125.102 666.049 125.363 665.495 Z"
opacity="1" fill="rgb(10,14,26)" fill-rule="evenodd" />
<path d="
M 125.975 674.592
C 126.21 673.752 126.483 673.19 127.197 672.646
C 127.959 672.612 128.272 672.59 128.842 673.126
C 129.316 674.792 128.946 676.609 128.92 678.316
C 128.872 681.503 128.929 684.703 128.94 687.884
C 128.945 689.168 129.613 691.535 128.778 692.625
C 127.927 692.785 126.989 692.958 126.165 692.647
C 125.774 689.486 126.106 686.174 126.058 682.994
C 126.015 680.201 125.706 677.381 125.975 674.592 Z"
opacity="1" fill="rgb(25,28,41)" fill-rule="evenodd" />
<path d="
M 134.767 672.78
C 135.515 672.171 136.796 672.215 137.63 672.677
C 137.857 673.627 137.733 674.59 137.938 675.535
C 139.237 674.538 140.193 673.355 141.72 672.653
C 145.372 670.975 149.36 673.034 150.702 676.695
C 151.323 678.388 151.088 680.334 151.099 682.102
C 151.122 685.653 150.957 689.317 151.442 692.839
C 150.42 692.793 149.068 693.062 148.138 692.65
C 147.994 689.187 148.178 685.697 148.135 682.227
C 148.116 680.647 148.319 678.733 147.741 677.231
C 145.731 672.005 140.076 675.212 138.44 678.952
C 137.269 681.63 137.922 685.63 137.884 688.495
C 137.866 689.817 138.147 691.629 137.278 692.735
C 134.923 693.878 134.7 690.233 134.704 688.907
C 134.716 683.723 133.947 677.879 134.767 672.78 Z"
opacity="1" fill="rgb(31,33,46)" fill-rule="evenodd" />
<path d="
M 154.964 694.603
C 154.981 694.021 154.924 694.31 155.153 693.737
C 156.155 692.857 157.292 692.032 158.066 690.932
C 157.335 690.012 156.275 689.163 155.787 688.093
C 156.232 687.033 158.706 685.292 158.481 684.085
C 158.239 682.786 156.627 681.927 156.337 680.551
C 155.388 676.047 160.072 671.948 164.206 672.127
C 166.132 672.21 167.141 673.388 168.854 673.788
C 169.271 673.404 169.054 671.952 169.342 671.326
C 170.545 671.111 171.684 671.003 172.901 670.941
C 173.05 671.831 173.443 672.817 173.181 673.717
C 172.128 673.983 171.159 674.162 170.149 674.586
C 169.948 676.378 171.439 678.203 171.321 680.166
C 171.14 683.169 167.536 686.582 164.477 686.64
C 163.125 686.665 161.815 685.845 160.462 685.718
C 159.692 686.747 159.159 687.605 159.63 688.895
C 160.69 689.804 162.374 689.679 163.682 689.65
C 166.879 689.579 171.028 688.882 172.659 692.421
C 172.92 692.986 173.126 693.595 173.191 694.216
C 173.278 695.06 173.169 695.827 172.897 696.624
C 172.059 698.766 170.184 699.492 168.115 700.092
C 163.486 701.436 155.168 701.008 154.964 694.603 Z
M 157.905 694.037
C 157.807 694.263 157.709 694.49 157.611 694.716
C 158.995 697.968 162.876 698.297 165.984 697.91
C 167.707 697.695 169.946 697.16 170.064 695.04
C 170.173 693.091 168.286 692.242 166.655 692.163
C 163.697 692.021 159.807 691.358 157.905 694.037 Z
M 159.444 678.093
C 158.241 683.78 167.053 686.284 168.356 680.274
C 169.552 674.757 160.662 672.34 159.444 678.093 Z"
opacity="1" fill="rgb(32,35,48)" fill-rule="evenodd" />
<path d="
M 186.839 672.808
C 187.493 672.355 188.682 672.208 189.457 672.396
C 189.42 673.195 189.244 673.967 189.232 674.775
C 189.626 675.227 190.248 674.387 190.648 674.05
C 191.84 673.045 192.99 672.284 194.575 672.08
C 199.361 671.461 203.188 675.007 204.225 679.433
C 205.472 684.76 203.196 693.046 196.52 693.372
C 193.947 693.498 191.765 691.765 189.58 690.681
C 189.499 694.007 189.366 697.375 189.294 700.732
C 188.544 700.714 187.477 700.893 186.832 700.483
C 186.269 691.386 186.402 681.908 186.839 672.808 Z
M 189.929 680.599
C 189.657 682.722 189.215 686.061 190.639 687.868
C 194.38 692.616 200.798 689.962 201.512 684.342
C 201.887 681.387 201.342 677.636 198.862 675.666
C 194.818 672.456 190.461 676.459 189.929 680.599 Z"
opacity="1" fill="rgb(30,33,45)" fill-rule="evenodd" />
<path d="
M 195.445 596.111
C 195.824 591.586 197.262 586.971 199.356 582.958
C 208.751 564.953 232.016 557.155 250.387 566.137
C 255.097 568.44 259.286 572.038 262.655 576.018
C 265.466 579.336 267.564 583.354 268.965 587.447
C 270.663 592.406 271.534 597.71 271.098 602.963
C 270.065 615.421 263.208 627.3 252.164 633.498
C 233.304 644.082 207.139 637.049 198.362 616.708
C 195.587 610.278 194.865 603.025 195.445 596.111 Z
M 209.939 596.603
C 208.802 605.586 211.986 615.691 219.693 620.982
C 234.107 630.878 254.461 621.797 256.649 604.484
C 257.974 593.999 253.1 582.974 243.569 578.055
C 228.983 570.526 211.924 580.917 209.939 596.603 Z"
opacity="1" fill="rgb(11,16,37)" fill-rule="evenodd" />
<path d="
M 208.4 681.085
C 208.9 679.046 209.3 677.081 210.691 675.428
C 214.192 671.264 220.628 670.943 223.759 675.713
C 225.402 678.216 225.435 680.477 225.272 683.349
C 220.741 683.889 215.922 683.321 211.361 683.394
C 210.415 687.861 215.023 690.88 219.039 690.277
C 220.79 690.014 221.495 688.793 222.94 688.143
C 223.691 688.519 224.437 688.898 225.193 689.264
C 225.277 689.781 224.112 690.651 223.741 690.956
C 221.889 692.477 219.831 693.039 217.456 692.93
C 211.496 692.657 207.207 687.008 208.4 681.085 Z
M 211.498 680.114
C 211.408 680.787 211.319 680.526 211.574 680.938
C 215.013 680.6 219.653 681.732 222.864 680.384
C 223.731 676.911 219.278 674.679 216.49 674.934
C 213.344 675.222 212.214 677.453 211.498 680.114 Z"
opacity="1" fill="rgb(29,31,41)" fill-rule="evenodd" />
<path d="
M 228.5 682.615
C 228.844 679.21 230.363 675.488 233.314 673.52
C 238.307 670.19 245.045 673.438 246.978 678.743
C 247.949 681.411 247.598 684.625 246.778 687.269
C 244.853 692.149 238.275 694.733 233.57 692.027
C 230.472 690.246 228.409 686.125 228.5 682.615 Z
M 231.944 680.08
C 231.228 682.885 231.722 685.8 233.64 688.024
C 236.667 691.535 241.793 690.891 243.852 686.711
C 245.211 683.952 244.939 680.3 243.261 677.731
C 241.112 674.44 237.028 673.343 234.11 676.354
C 233.109 677.457 232.521 678.721 231.944 680.08 Z"
opacity="1" fill="rgb(25,29,38)" fill-rule="evenodd" />
<path d="
M 252.364 672.887
C 252.905 672.307 253.939 672.382 254.688 672.255
C 254.96 673.217 254.831 674.284 254.817 675.28
C 255.025 675.653 257.408 672.989 258.112 672.627
C 260.17 671.568 262.754 671.861 264.76 672.886
C 271.988 676.579 271.771 689.838 263.834 692.557
C 261.915 693.214 259.737 692.962 257.919 692.106
C 257.18 691.759 255.713 690.224 255.028 690.375
C 254.874 693.651 254.791 697.053 254.818 700.383
C 254.151 700.621 253.2 700.432 252.503 700.373
C 251.997 699.96 252.091 699.226 252.082 698.592
C 252.058 696.981 252.081 695.358 252.094 693.745
C 252.146 686.965 251.382 679.588 252.364 672.887 Z
M 254.984 683.117
C 254.97 684.572 255.114 686.195 255.89 687.465
C 259.554 693.464 266.765 689.032 266.768 683.256
C 266.769 681.468 266.624 679.658 265.825 678.03
C 264.106 674.531 259.811 673.417 257.057 676.451
C 255.452 678.22 255.006 680.811 254.984 683.117 Z"
opacity="1" fill="rgb(28,30,39)" fill-rule="evenodd" />
<path d="
M 274.468 664.095
C 274.499 663.862 274.53 663.628 274.562 663.395
C 275.437 663.481 276.299 663.416 277.172 663.496
C 278.012 665.802 277.333 669.049 277.335 671.496
C 277.339 677.64 276.841 684.177 277.59 690.264
C 278.508 690.787 280.676 690.355 281.72 690.246
C 281.823 691.036 281.912 692.316 281.215 692.838
C 279.812 692.939 277.118 693.427 276.046 692.288
C 274.288 690.417 274.739 686.773 274.644 684.415
C 274.372 677.711 274.243 670.8 274.468 664.095 Z"
opacity="1" fill="rgb(25,24,35)" fill-rule="evenodd" />
<path d="
M 283.984 681.108
C 284.311 679.289 284.491 677.514 285.563 675.932
C 288.411 671.731 294.641 670.629 298.326 674.41
C 300.73 676.877 301.368 680.075 301.267 683.408
C 299.456 683.75 297.348 683.42 295.51 683.379
C 292.617 683.313 289.704 683.501 286.819 683.355
C 286.919 684.713 286.812 686.199 287.628 687.38
C 290.424 691.43 295.048 691.467 298.158 688.007
C 299.066 688.009 299.936 688.267 300.808 688.51
C 300.029 692.784 293.654 694.03 290.177 692.672
C 285.522 690.854 283.432 685.84 283.984 681.108 Z
M 287.034 680.12
C 286.936 680.792 286.816 680.562 287.103 680.893
C 290.532 680.624 294.597 681.498 297.892 680.416
C 298.796 676.401 294.415 674.216 291.042 675.073
C 288.34 675.76 287.554 677.664 287.034 680.12 Z"
opacity="1" fill="rgb(30,30,39)" fill-rule="evenodd" />
<path d="
M 289.793 563.836
C 297.786 563.813 305.782 563.79 313.777 563.791
C 319.466 563.791 325.651 563.56 330.967 565.922
C 348.581 573.748 350.9 598.696 335.287 609.831
C 328.758 614.488 320.137 614.284 312.501 614.299
C 309.956 614.304 306.088 613.639 303.696 614.492
C 303.833 619.654 303.768 624.832 303.797 629.998
C 303.81 632.185 303.465 634.773 303.835 636.9
C 299.592 636.238 294.215 636.51 289.943 636.938
C 289.551 633.364 289.861 629.597 289.861 626.001
C 289.863 619.169 289.835 612.338 289.821 605.506
C 289.802 596.34 289.764 587.174 289.753 578.008
C 289.748 573.305 289.476 568.527 289.793 563.836 Z
M 303.805 576.685
C 303.973 581.607 303.798 586.566 303.806 591.494
C 303.811 594.834 304.084 598.293 303.821 601.615
C 304.393 601.942 305.354 601.669 306.01 601.691
C 307.843 601.755 309.683 601.735 311.518 601.742
C 316.115 601.759 321.559 602.439 325.766 600.221
C 332.783 596.521 334.109 585.217 328.04 579.94
C 321.78 574.496 311.365 577.207 303.805 576.685 Z"
opacity="1" fill="rgb(12,16,36)" fill-rule="evenodd" />
<path d="
M 313.313 685.508
C 315.364 680.934 321.868 680.181 326.202 679.698
C 327.244 676.714 323.161 674.579 320.816 674.844
C 318.715 675.081 317.589 676.341 315.919 677.407
C 313.193 676.374 315.248 674.413 316.847 673.479
C 319.431 671.971 322.323 671.333 325.007 673.088
C 330.662 676.784 328.702 682.513 329.194 688.151
C 329.319 689.584 330.64 690.217 330.87 691.479
C 330.7 692.431 329.065 693.169 328.194 692.816
C 327.539 692.144 326.934 691.189 326.622 690.312
C 325.189 691.231 323.732 692.523 322.019 692.859
C 317.351 693.775 312.347 690.863 313.313 685.508 Z
M 316.388 686.576
C 316.101 689.008 318.026 690.835 320.416 690.722
C 322.654 690.617 324.791 689.21 325.899 687.28
C 326.244 685.603 325.864 683.87 325.772 682.188
C 322.321 682.591 317.84 682.693 316.388 686.576 Z"
opacity="1" fill="rgb(30,31,41)" fill-rule="evenodd" />
<path d="
M 333.955 680.599
C 335.011 674.973 339.791 670.644 345.737 672.613
C 347.382 673.158 348.623 674.417 349.891 675.536
C 350.052 676.351 349.049 677.319 348.178 677.067
C 346.962 676.715 346.07 675.501 344.81 675.105
C 341.35 674.018 338.14 676.128 337.056 679.445
C 336.118 682.318 336.204 685.467 338.103 687.947
C 340.484 691.057 345.003 691.278 347.359 688.141
C 348.271 688.363 349.157 688.651 350.077 688.854
C 350.445 689.477 349.566 690.171 349.124 690.631
C 347.835 691.971 346.285 692.715 344.436 692.929
C 337.514 693.729 332.862 687.132 333.955 680.599 Z"
opacity="1" fill="rgb(24,25,36)" fill-rule="evenodd" />
<path d="
M 352.989 681.101
C 353.516 678.87 354.113 676.68 355.736 674.972
C 359.307 671.214 365.73 671.286 368.704 675.712
C 368.825 676.421 368.457 677.556 367.508 677.451
C 366.33 677.32 365.065 675.46 363.861 675.01
C 360.396 673.718 357.222 676.238 356.212 679.453
C 354.504 684.886 357.825 691.892 364.41 690.147
C 365.637 689.822 366.422 688.825 367.347 688.035
C 368.163 688.044 368.888 688.327 369.618 688.667
C 368.962 692.404 363.495 693.635 360.471 692.932
C 355.582 691.797 351.888 685.996 352.989 681.101 Z"
opacity="1" fill="rgb(20,22,33)" fill-rule="evenodd" />
<path d="
M 362.071 564.106
C 373.961 563.293 386.081 563.88 398.004 563.83
C 402.004 563.814 406.005 563.798 410.006 563.802
C 411.849 563.804 414.142 563.458 415.924 563.922
C 415.622 568.114 415.622 572.863 415.968 577.055
C 415.483 577.428 413.714 577.068 413.071 577.054
C 410.548 576.998 408.03 576.962 405.505 576.958
C 399.173 576.948 392.84 576.951 386.507 576.947
C 383.064 576.945 379.536 576.691 376.109 577.024
C 374.897 582.303 376.43 588.341 376.091 593.714
C 377.136 594.004 378.413 593.781 379.503 593.784
C 382.003 593.791 384.504 593.781 387.004 593.777
C 395.068 593.766 403.131 593.74 411.194 593.775
C 411.543 594.909 411.336 596.278 411.363 597.457
C 411.432 600.416 411.271 603.386 411.337 606.339
C 406.835 605.791 402.128 606.081 397.596 606.027
C 390.446 605.943 383.234 605.736 376.095 606.088
C 375.478 607.423 375.91 609.82 375.914 611.288
C 375.925 615.441 376.189 619.682 376.01 623.819
C 385.789 623.325 395.714 623.727 405.508 623.744
C 408.175 623.748 410.846 623.737 413.512 623.812
C 414.287 623.834 415.683 623.652 416.319 624.069
C 416.613 628.282 415.986 632.609 416.353 636.796
C 415.481 637.323 413.282 636.965 412.247 636.964
C 408.666 636.961 405.086 636.937 401.505 636.929
C 392.839 636.908 384.172 636.912 375.505 636.919
C 371.181 636.923 366.752 636.6 362.442 636.953
C 361.667 636.464 362.125 633.419 362.128 632.504
C 362.141 628.17 362.11 623.837 362.096 619.504
C 362.038 601.038 362.119 582.57 362.071 564.106 Z"
opacity="1" fill="rgb(17,23,54)" fill-rule="evenodd" />
<path d="
M 372.008 682.115
C 372.858 676.522 376.952 670.03 383.698 672.681
C 386.691 673.857 388.894 676.899 389.457 679.998
C 389.671 681.179 390.058 682.587 389.252 683.624
C 387.764 684.065 386.27 683.448 384.776 683.375
C 381.618 683.22 378.316 683.561 375.166 683.743
C 374.801 688.042 379.067 691.763 383.325 690.559
C 384.588 690.202 385.629 689.143 386.492 688.208
C 387.315 688.271 388.214 688.636 388.964 688.989
C 388.894 689.723 387.86 690.496 387.316 690.956
C 385.196 692.743 382.69 693.408 379.963 692.904
C 374.919 691.972 371.843 687.105 372.008 682.115 Z
M 374.968 680.612
C 374.92 680.829 374.871 681.046 374.823 681.263
C 378.658 681.199 382.888 680.368 386.693 680.792
C 387.608 676.856 382.758 674.142 379.477 674.999
C 376.748 675.712 375.69 678.164 374.968 680.612 Z"
opacity="0.996" fill="rgb(25,28,36)" fill-rule="evenodd" />
<path d="
M 392.98 678.108
C 393.43 673.56 398.58 670.943 402.785 672.389
C 404.175 672.867 405.17 673.805 406.303 674.695
C 406.573 674.907 407.404 675.378 407.392 675.727
C 406.63 676.19 405.162 676.719 404.266 676.604
C 402.609 675.934 401.774 674.766 399.806 674.797
C 397.965 674.827 394.763 677.064 396.291 679.184
C 399.042 683.004 407.591 680.479 407.389 686.994
C 407.37 687.589 407.316 688.204 407.103 688.765
C 405.476 693.035 400.012 693.809 396.25 692.172
C 394.749 691.519 393.033 690.414 392.62 688.77
C 393.739 687.338 395.531 688.925 396.653 689.599
C 398.845 690.916 403.319 691.212 404.611 688.33
C 405.344 686.694 403.558 685.172 402.272 684.594
C 399.431 683.315 392.785 682.165 392.98 678.108 Z"
opacity="1" fill="rgb(27,31,41)" fill-rule="evenodd" />
<path d="
M 410.2 688.95
C 411.559 688.025 413.211 689.078 414.486 689.765
C 416.598 690.903 420.848 691.348 422.185 688.78
C 423.088 687.047 421.696 685.032 420.019 684.483
C 416.072 683.191 410.91 683.112 411.226 677.588
C 411.288 676.505 411.706 675.492 412.366 674.641
C 415.716 670.316 421.222 672.028 424.862 675.031
C 424.58 675.837 423.87 676.755 423.014 676.972
C 420.764 676.054 419.165 674.437 416.503 674.857
C 414.463 675.179 412.619 677.49 414.205 679.36
C 415.457 680.836 417.61 680.82 419.346 681.246
C 422.076 681.915 425.483 683.855 425.638 687.049
C 425.915 692.752 418.243 694.273 414.081 692.633
C 412.419 691.978 411.23 690.325 410.2 688.95 Z"
opacity="1" fill="rgb(26,31,45)" fill-rule="evenodd" />
<path d="
M 555.059 337.894
C 554.103 340.083 550.094 341.161 548.128 342.35
C 542.433 345.798 536.603 349.34 531.372 353.415
C 528.324 352.552 525.476 350.913 522.378 350.062
C 514.403 347.872 505.2 347.281 497.048 348.917
C 490.031 350.326 483.057 353.088 477.029 356.961
C 454.103 371.693 445.312 401.773 455.431 426.776
C 459.88 437.769 468.518 447.159 478.815 452.958
C 481.578 454.514 484.63 455.706 487.582 456.852
C 488.916 457.369 490.729 457.657 491.894 458.464
C 488.756 470.58 485.168 482.617 481.794 494.661
C 483.51 495.026 485.734 494.641 487.509 494.638
C 491.675 494.632 495.841 494.565 500.007 494.547
C 507.34 494.517 514.674 494.514 522.008 494.536
C 525.401 494.546 528.939 494.886 532.314 494.643
C 532.435 494.018 531.619 492.64 531.427 491.966
C 530.824 489.845 530.204 487.732 529.658 485.594
C 527.357 476.578 523.769 467.857 521.681 458.803
C 525.824 457.165 530.075 455.993 534.063 453.949
C 537.949 451.957 541.243 449.113 545.026 446.995
C 546.773 449.209 546.873 452.712 547.655 455.365
C 549.531 461.734 551.658 468.173 553.332 474.559
C 556.185 481.987 558.011 489.774 560.386 497.359
C 562.736 504.865 565.718 512.552 567.359 520.245
C 541.468 519.397 515.404 520.082 489.5 520.208
C 480.333 520.253 471.166 520.243 461.999 520.265
C 457.233 520.277 452.092 519.769 447.377 520.487
C 447.294 519.443 448.13 517.997 448.394 516.947
C 449.114 514.087 449.899 511.246 450.659 508.396
C 452.687 500.795 455.101 493.272 457.359 485.735
C 458.591 481.624 460.275 477.216 460.727 472.942
C 450.086 465.314 440.902 456.095 434.653 444.451
C 427.018 430.223 423.483 413.609 424.967 397.509
C 427.327 371.9 442.59 346.755 464.933 333.665
C 486.183 321.214 513.579 318.401 536.606 327.586
C 541.309 329.461 545.957 331.668 550.214 334.422
C 551.663 335.359 554.11 336.445 555.059 337.894 Z"
opacity="1" fill="rgb(13,21,49)" fill-rule="evenodd" />
<path d="
M 433.309 563.839
C 437.538 563.85 441.773 563.773 446.005 563.778
C 450.671 563.782 455.337 563.783 460.004 563.807
C 469.18 563.854 479.871 563.601 486.675 570.961
C 488.189 572.599 489.377 574.526 490.354 576.524
C 491.516 578.903 492.2 581.275 492.612 583.885
C 493.119 587.101 492.897 590.516 492.103 593.67
C 490.828 598.727 488.266 603.34 483.976 606.467
C 482.274 607.707 480.352 608.562 478.427 609.381
C 477.9 609.605 476.726 609.829 476.584 610.374
C 478.686 612.353 480.167 615.168 481.776 617.549
C 486.062 623.889 490.008 631.011 494.902 636.859
C 490.778 636.727 486.629 636.845 482.501 636.812
C 481.207 636.802 478.879 637.303 477.779 636.66
C 471.825 629.122 467.679 620.197 461.898 612.52
C 460.87 611.962 459.156 612.298 458.003 612.294
C 454.537 612.28 450.965 612.003 447.523 612.472
C 447.339 620.461 446.778 628.865 447.392 636.827
C 442.775 636.801 438.035 636.57 433.432 636.949
C 432.72 636.139 433.289 633.136 433.287 632.007
C 433.281 627.507 433.269 623.007 433.269 618.507
C 433.269 600.331 432.555 581.997 433.309 563.839 Z
M 447.451 577.346
C 447.593 581.829 447.402 586.358 447.416 590.851
C 447.425 593.569 447.834 596.492 447.561 599.181
C 452.757 598.844 458.034 599.186 463.241 599.152
C 465.947 599.134 469.066 599.382 471.633 598.347
C 479.278 595.264 481.324 582.953 473.369 578.806
C 470.508 577.314 467.062 577.342 463.915 577.296
C 458.431 577.217 452.925 577.466 447.451 577.346 Z"
opacity="1" fill="rgb(11,15,36)" fill-rule="evenodd" />
<path d="
M 436.939 673.609
C 436.951 673.391 436.964 673.174 436.977 672.956
C 437.817 672.31 439.18 672.036 440.24 672.258
C 440.103 670.602 440.305 668.945 440.377 667.29
C 441.236 666.989 442.042 666.965 442.943 667.036
C 443.081 668.793 443.17 670.523 443.119 672.298
C 444.73 672.473 446.432 672.216 447.97 672.824
C 447.964 673.472 447.995 674.14 447.749 674.75
C 446.353 674.87 444.954 674.928 443.555 675.023
C 442.737 675.751 442.943 677.296 442.945 678.348
C 442.952 681.451 441.972 686.688 443.586 689.41
C 444.765 690.402 447.12 689.89 448.573 689.881
C 448.885 690.55 448.995 691.118 448.806 691.834
C 445.23 693.984 441.576 693.095 440.4 688.811
C 439.261 684.664 440.365 679.68 440.23 675.415
C 439.176 675.381 438.1 675.165 437.071 674.949
C 436.931 674.493 436.942 674.086 436.939 673.609 Z"
opacity="1" fill="rgb(19,26,40)" fill-rule="evenodd" />
<path d="
M 452.725 663.827
C 453.548 663.8 454.373 663.779 455.197 663.782
C 455.468 667.541 455.425 671.413 455.339 675.178
C 455.393 675.515 457.832 673.232 458.499 672.887
C 460.612 671.795 464.097 671.987 466.036 673.39
C 470.177 676.386 468.78 683.26 468.876 687.553
C 468.909 689.038 469.454 691.89 468.172 692.978
C 467.635 693.213 467.096 693.098 466.562 692.89
C 465.421 690.24 465.816 685.433 465.986 682.551
C 466.076 681.023 466.41 679.296 465.832 677.828
C 463.691 672.396 457.884 675.111 455.934 679.048
C 455.297 680.335 455.663 682.117 455.699 683.501
C 455.778 686.451 456.098 689.819 455.24 692.672
C 454.561 693.042 453.644 692.852 453.009 692.473
C 451.847 689.676 452.673 685.011 452.795 682.002
C 453.037 676.031 451.793 669.744 452.725 663.827 Z"
opacity="1" fill="rgb(27,32,45)" fill-rule="evenodd" />
<path d="
M 461.915 408.072
C 462.533 406.909 463.639 408.369 464.393 409.086
C 466.791 411.366 469.555 413.36 472.154 415.409
C 476.684 418.983 481.132 422.657 485.445 426.492
C 486.898 427.783 489.591 429.372 490.526 431.045
C 487.895 430.965 485.211 431.855 482.624 432.219
C 478.87 432.746 475.018 432.94 471.233 433.056
C 471.118 432.997 471.003 432.939 470.889 432.88
C 467.815 426.692 464.441 420.816 462.914 413.992
C 462.495 412.117 461.773 410.001 461.915 408.072 Z"
opacity="1" fill="rgb(236,117,38)" fill-rule="evenodd" />
<path d="
M 462.419 397.066
C 464.701 390.878 466.256 384.978 469.552 379.186
C 470.721 377.131 471.977 374.858 474.086 373.644
C 474.621 373.979 474.612 374.891 474.677 375.519
C 474.852 377.209 475.057 378.9 475.214 380.592
C 475.894 387.905 476.527 395.194 476.69 402.544
C 476.737 404.673 476.922 406.869 476.752 408.991
C 476.733 409.228 476.876 410.805 476.671 410.858
C 472.105 406.697 466.04 403.121 462.37 398.116
C 462.306 397.418 462.291 397.768 462.419 397.066 Z"
opacity="1" fill="rgb(231,116,40)" fill-rule="evenodd" />
<path d="
M 473.476 680.59
C 475.118 674.86 480.569 669.417 486.651 673.387
C 487.608 674.011 488.389 674.823 489.097 675.716
C 491.133 678.284 490.956 680.732 491.287 683.76
C 487.852 683.597 484.403 683.72 480.965 683.639
C 479.362 683.602 477.912 683.156 476.43 683.943
C 476.621 685.327 476.684 686.72 477.583 687.875
C 480.456 691.567 485.735 690.847 488.348 687.516
C 489.185 687.649 489.929 687.902 490.433 688.609
C 489.762 692.45 483.928 693.677 480.764 692.965
C 475.868 691.864 472.178 685.343 473.476 680.59 Z
M 476.451 680.725
C 476.439 680.832 476.427 680.939 476.415 681.046
C 479.06 680.625 481.835 680.861 484.505 680.812
C 485.56 680.793 487.17 680.962 488.127 680.523
C 488.141 676.655 483.924 673.349 480.115 675.069
C 477.641 676.187 477.043 678.336 476.451 680.725 Z"
opacity="0.996" fill="rgb(21,28,43)" fill-rule="evenodd" />
<path d="
M 478.936 439.373
C 480.983 439.11 483.018 438.406 485.067 438.054
C 491.326 436.979 497.64 436.115 503.943 435.338
C 507.278 434.926 510.809 434.297 514.174 434.557
C 514.431 435.629 512.046 437.855 511.332 438.688
C 508.996 441.41 507.027 444.426 504.733 447.179
C 503.924 448.15 503.106 449.773 501.985 450.376
C 499.262 450.369 496.377 448.874 493.91 447.856
C 488.454 445.604 483.366 443.504 478.651 439.926
C 478.746 439.742 478.841 439.557 478.936 439.373 Z"
opacity="1" fill="rgb(234,120,44)" fill-rule="evenodd" />
<path d="
M 479.989 405.607
C 480.745 401.465 479.985 397.072 480.71 392.957
C 482.597 390.517 485.424 388.6 487.673 386.489
C 489.959 384.344 492.247 382.235 494.594 380.159
C 495.663 379.215 496.653 377.91 497.916 377.24
C 502.736 376.844 508.075 377.801 512.892 378.227
C 515.635 378.47 518.945 378.176 521.583 378.914
C 522.794 379.776 523.678 381.091 524.68 382.177
C 527.16 384.863 529.585 387.639 531.869 390.493
C 532.943 391.834 534.882 393.14 535.491 394.764
C 536.27 396.84 535.664 400.031 535.556 402.21
C 535.324 406.877 536.021 412.103 535.173 416.678
C 529.017 420.131 525.159 426.79 519.192 430.552
C 517.653 431.522 514.167 431.243 512.383 431.297
C 506.818 431.463 500.718 432.547 495.192 431.831
C 491.136 428.498 487.62 424.088 483.989 420.305
C 482.619 418.878 480.017 416.833 479.567 414.824
C 479.351 413.86 479.667 412.687 479.719 411.709
C 479.826 409.678 479.83 407.634 479.989 405.607 Z"
opacity="1" fill="rgb(233,121,41)" fill-rule="evenodd" />
<path d="
M 480.397 368.003
C 481.838 366.148 484.234 365.382 486.309 364.454
C 490.571 362.55 494.929 360.772 499.545 359.932
C 501.368 359.601 504.13 358.841 505.925 359.459
C 505.034 361.26 503.391 362.788 502.166 364.371
C 498.394 369.246 494.212 373.768 489.802 378.067
C 487.826 379.994 485.816 381.929 483.95 383.962
C 483.6 384.343 481.383 386.867 481.351 386.684
C 481.396 382.529 480.968 378.301 480.63 374.159
C 480.474 372.253 479.937 369.87 480.397 368.003 Z"
opacity="1" fill="rgb(234,117,40)" fill-rule="evenodd" />
<path d="
M 502.421 373.628
C 506.641 369.311 510.839 364.61 514.383 359.713
C 516.615 359.831 519.029 360.971 521.112 361.735
C 527.965 364.25 533.536 368.034 539.495 372.111
C 539.242 372.49 537.922 372.35 537.486 372.397
C 535.266 372.635 533.004 372.695 530.793 372.975
C 524.977 373.711 518.939 373.785 513.081 373.905
C 509.513 373.979 505.859 374.356 502.303 374.01
C 502.342 373.882 502.381 373.755 502.421 373.628 Z"
opacity="1" fill="rgb(232,116,42)" fill-rule="evenodd" />
<path d="
M 505.484 666.103
C 505.488 665.451 505.454 665.776 505.59 665.128
C 506.189 664.709 507.015 664.56 507.732 664.677
C 511.542 669.818 514.817 675.269 518.356 680.609
C 519.346 682.103 520.509 683.467 521.495 684.958
C 521.927 685.61 522.214 686.727 522.858 687.162
C 523.246 686.101 522.746 684.038 522.716 682.864
C 522.615 678.952 522.678 675.022 522.639 671.107
C 522.619 669.073 522.188 666.664 523.215 664.794
C 524.013 664.747 524.754 664.74 525.544 664.857
C 525.547 670.725 525.631 676.62 525.721 682.493
C 525.772 685.822 526.088 689.374 525.707 692.681
C 525.03 692.97 524.185 692.908 523.469 692.819
C 521.938 691.5 520.969 689.326 519.859 687.655
C 517.224 683.691 514.659 679.671 512.18 675.608
C 511.39 674.312 510.542 673.071 509.652 671.845
C 509.277 671.328 509.167 670.433 508.517 670.9
C 508.372 678.009 509.265 685.658 508.337 692.723
C 507.447 692.664 506.578 692.788 505.692 692.632
C 505.466 683.815 506.159 674.903 505.484 666.103 Z"
opacity="1" fill="rgb(24,31,49)" fill-rule="evenodd" />
<path d="
M 511.514 449.573
C 516.353 442.903 521.255 436.401 526.665 430.161
C 528.98 427.49 531.184 424.24 534.154 422.274
C 534.762 426.525 535.321 430.801 535.721 435.081
C 535.86 436.571 536.452 438.726 535.933 440.15
C 534.165 442.282 531.616 443.45 529.17 444.624
C 525.427 446.422 521.543 448.25 517.521 449.326
C 516.089 449.709 512.547 450.951 511.241 450.055
C 511.332 449.894 511.423 449.733 511.514 449.573 Z"
opacity="1" fill="rgb(234,116,40)" fill-rule="evenodd" />
<path d="
M 527.138 379.408
C 532.853 378.809 538.717 379.235 544.398 378.55
C 547.397 383.653 549.907 389.275 551.319 395.03
C 551.673 396.475 553.12 398.789 552.865 400.249
C 546.509 396.933 540.841 391.899 535.441 387.231
C 532.585 384.762 529.345 382.514 527.138 379.408 Z"
opacity="1" fill="rgb(231,119,42)" fill-rule="evenodd" />
<path d="
M 531.372 353.415
C 536.603 349.34 542.433 345.798 548.128 342.35
C 550.094 341.161 554.103 340.083 555.059 337.894
C 557.493 338.749 559.722 341.163 561.629 342.845
C 567.11 347.682 571.967 353.277 575.869 359.467
C 580.175 366.298 583.943 373.573 586.256 381.335
C 592.475 402.205 590.547 425.506 579.738 444.571
C 575.156 452.652 569.653 459.885 562.741 466.129
C 560.875 467.814 558.933 469.551 556.829 470.936
C 555.179 472.022 553.714 472.447 553.332 474.559
C 551.658 468.173 549.531 461.734 547.655 455.365
C 546.873 452.712 546.773 449.209 545.026 446.995
C 546.488 445.806 548.039 443.856 549.374 442.399
C 565.206 425.121 568.67 397.178 556.707 376.733
C 552.573 369.666 546.686 363.07 539.933 358.397
C 537.196 356.503 534.186 355.156 531.372 353.415 Z"
opacity="1" fill="rgb(233,118,41)" fill-rule="evenodd" />
<path d="
M 532.871 665.561
C 532.948 665.352 533.025 665.143 533.102 664.935
C 538.093 664.435 544.532 664.208 548.858 667.169
C 556.276 672.246 556.709 684.823 549.587 690.362
C 545.069 693.876 538.24 692.438 532.964 692.923
C 532.152 690.295 532.752 686.746 532.747 684.007
C 532.735 677.97 532.11 671.554 532.871 665.561 Z
M 535.997 667.89
C 535.127 674.977 535.627 682.537 535.787 689.668
C 537.35 690.046 539.322 689.807 540.94 689.807
C 543.692 689.807 546.549 689.077 548.567 687.07
C 552.604 683.056 552.356 674.602 548.583 670.503
C 545.794 667.472 539.777 667.018 535.997 667.89 Z"
opacity="1" fill="rgb(19,28,48)" fill-rule="evenodd" />
<path d="
M 537.291 636.644
C 545.383 619.843 552.102 602.321 559.448 585.181
C 562.498 578.063 564.961 570.362 568.784 563.619
C 572.715 563.364 577.134 563.22 581.043 563.707
C 588.153 580.46 595.5 597.131 602.622 613.882
C 604.79 618.98 606.876 624.111 609.037 629.214
C 610.01 631.511 611.794 634.321 611.965 636.836
C 607.357 637.028 602.592 636.387 598.011 636.945
C 596.814 636.135 596.486 633.572 595.973 632.251
C 594.518 628.497 593.383 624.346 591.468 620.802
C 587.931 619.862 583.175 620.557 579.504 620.54
C 575.015 620.519 570.487 620.699 566.003 620.516
C 563.511 620.414 560.977 620.22 558.49 620.513
C 556.061 625.797 554.705 631.676 551.663 636.656
C 550.371 637.13 548.377 636.791 546.999 636.802
C 543.721 636.829 540.425 636.871 537.162 637.069
C 537.205 636.927 537.248 636.786 537.291 636.644 Z
M 563.973 607.124
C 563.893 607.334 563.814 607.545 563.735 607.755
C 568.96 607.539 574.266 607.721 579.506 607.723
C 581.702 607.724 584.262 608.05 586.412 607.643
C 586.734 606.972 584.81 603.943 584.5 603.241
C 582.491 598.694 580.846 593.982 578.858 589.423
C 577.896 587.219 576.967 585.004 576.071 582.773
C 575.787 582.067 574.93 579.483 574.603 580.079
C 571.032 589.058 567.837 598.26 563.973 607.124 Z"
opacity="1" fill="rgb(237,119,41)" fill-rule="evenodd" />
<path d="
M 539.009 398.908
C 540.783 399.133 542.334 401.054 543.713 402.118
C 546.94 404.607 550.347 406.745 553.134 409.773
C 553.669 411.454 552.292 414.568 551.811 416.247
C 550.428 421.075 548.736 425.7 545.971 429.924
C 545.051 431.33 544.308 432.983 543.033 434.086
C 542.348 433.213 542.272 431.698 542.136 430.606
C 541.84 428.247 541.484 425.9 541.262 423.533
C 540.487 415.28 539.398 407.198 539.009 398.908 Z"
opacity="1" fill="rgb(229,113,40)" fill-rule="evenodd" />
<path d="
M 559.979 667.613
C 560.046 666.771 560.159 666.01 560.104 665.16
C 561.102 665.024 562.047 664.995 563.054 664.947
C 563.437 665.444 563.197 666.605 563.182 667.189
C 563.142 668.79 563.133 670.393 563.112 671.995
C 563.055 676.329 563.13 680.664 563.169 684.998
C 563.192 687.576 563.469 690.2 562.773 692.711
C 562.019 692.845 561.02 692.673 560.435 692.209
C 559.663 688.872 560.16 684.916 560.183 681.499
C 560.214 676.885 559.821 672.214 559.979 667.613 Z"
opacity="1" fill="rgb(27,28,50)" fill-rule="evenodd" />
<path d="
M 567.859 687.323
C 568.048 687.237 568.237 687.15 568.426 687.063
C 572.377 688.443 575.432 691.347 579.986 690.551
C 583.677 689.906 586.534 685.972 583.526 682.761
C 579.656 678.63 570.51 680.371 568.932 673.525
C 567.018 665.226 578.191 662.654 583.663 666.069
C 584.457 666.565 585.506 666.929 586.059 667.698
C 586.04 668.981 585.916 670.347 584.469 670.587
C 581.451 667.748 576.55 665.394 572.964 668.932
C 570.793 671.734 572.041 674.851 575.194 676.203
C 579.473 678.037 587.397 678.011 587.906 684.337
C 587.973 685.177 587.965 686.086 587.792 686.913
C 586.415 693.49 578.888 694.093 573.532 692.451
C 571.494 691.827 567.35 689.817 567.859 687.323 Z"
opacity="1" fill="rgb(22,31,49)" fill-rule="evenodd" />
<path d="
M 599.461 682.1
C 599.487 681.906 599.514 681.712 599.54 681.519
C 601.258 680.201 604.91 680.921 607.006 680.927
C 613.564 680.948 620.319 680.444 626.851 681.015
C 626.827 681.943 626.811 682.83 626.693 683.751
C 617.784 684.347 608.668 683.725 599.74 683.761
C 599.314 683.309 599.444 682.694 599.461 682.1 Z"
opacity="1" fill="rgb(21,33,43)" fill-rule="evenodd" />
<path d="
M 620.989 599.119
C 621.598 593.793 622.143 588.987 624.436 584.032
C 630.166 571.647 643.013 563.238 656.571 562.468
C 665.193 561.978 673.91 564.401 681.012 569.295
C 682.758 570.499 684.556 571.795 685.902 573.452
C 686.266 573.9 687.14 574.697 687.129 575.287
C 685.262 577.498 682.853 579.407 680.835 581.506
C 680.003 582.372 679.197 583.771 678.085 584.263
C 676.272 583.673 674.611 580.958 672.963 579.837
C 668.351 576.702 662.679 575.037 657.094 575.375
C 654.232 575.548 651.446 576.357 648.842 577.523
C 635.461 583.514 631.161 600.965 637.929 613.445
C 641.421 619.885 648.409 624.454 655.621 625.476
C 659.052 625.962 662.512 625.545 665.807 624.505
C 670.575 622.999 674.101 620.186 677.651 616.79
C 678.403 616.915 679.378 618.46 679.959 619.002
C 682.189 621.079 685.163 622.802 686.833 625.429
C 674.688 638.736 654.73 642.722 638.996 633.453
C 636.211 631.813 633.468 629.948 631.267 627.561
C 627.584 623.567 624.941 618.882 623.211 613.751
C 621.645 609.103 620.801 604.037 620.989 599.119 Z"
opacity="1" fill="rgb(237,118,41)" fill-rule="evenodd" />
<path d="
M 637.969 686.1
C 638.936 680.813 646.125 680.689 650.325 680.137
C 651.593 675.658 646.385 674.462 643.193 675.784
C 642.269 676.166 640.892 677.695 640.062 677.807
C 639.586 677.413 639.239 677.015 638.869 676.525
C 638.818 675.46 640.175 674.444 641.006 673.927
C 643.458 672.402 647.932 671.705 650.425 673.396
C 655.092 676.563 653.439 683.778 653.752 688.536
C 653.838 689.857 655.611 690.817 655.414 691.865
C 654.664 692.625 653.144 693.106 652.1 692.908
C 651.623 692.184 651.314 691.352 651.059 690.528
C 647.615 692.062 642.437 695.013 639.406 690.993
C 638.898 690.319 638.568 689.452 638.329 688.651
C 638.075 687.803 637.925 686.983 637.969 686.1 Z
M 640.929 686.59
C 640.588 690.386 645.007 691.145 647.683 689.771
C 650.561 688.292 651.066 685.498 650.474 682.527
C 647.181 682.613 642.17 682.875 640.929 686.59 Z"
opacity="1" fill="rgb(27,35,50)" fill-rule="evenodd" />
<path d="
M 659.503 684.614
C 660.003 680.803 659.893 676.344 659.49 672.533
C 660.345 672.356 661.21 672.353 662.08 672.389
C 662.512 673.044 662.023 674.532 661.948 675.281
C 661.858 675.74 662.861 674.66 663.033 674.489
C 663.678 673.847 664.287 673.22 665.115 672.803
C 667.416 671.645 670.617 672.011 672.609 673.555
C 677.001 676.96 675.57 682.507 675.603 687.38
C 675.612 688.846 676.175 692.142 674.793 693.157
C 674.309 693.305 673.935 693.237 673.444 693.173
C 672.399 692.145 672.756 689.888 672.756 688.506
C 672.757 685.07 673.662 680.234 672.026 677.084
C 670.055 673.29 665.451 674.841 663.565 677.828
C 662.006 680.297 662.412 682.884 662.444 685.676
C 662.47 687.972 662.194 690.268 662.099 692.553
C 661.489 693.001 660.157 692.592 659.489 692.399
C 659.058 690.144 659.303 686.923 659.503 684.614 Z"
opacity="1" fill="rgb(27,33,46)" fill-rule="evenodd" />
<path d="
M 679.934 681.09
C 680.919 675.683 685.787 670.489 691.619 672.786
C 692.648 673.192 693.723 673.705 694.367 674.629
C 694.469 674.72 694.42 671.857 694.445 671.092
C 694.528 668.62 694.645 666.133 694.61 663.661
C 695.662 663.553 696.7 663.634 697.751 663.556
C 697.772 669.867 697.643 676.182 697.688 682.494
C 697.711 685.772 698.237 689.506 697.743 692.736
C 697.027 692.937 696.512 692.874 695.808 692.673
C 695.489 691.957 695.329 691.22 695.093 690.477
C 693.512 691.591 692.022 693.051 690.001 693.215
C 683.896 693.71 678.812 686.919 679.934 681.09 Z
M 682.953 681.1
C 682.449 684.093 683.307 687.663 685.829 689.551
C 689.473 692.279 693.795 689.121 694.509 685.296
C 695.039 682.459 695.108 678.604 693.035 676.341
C 689.007 671.945 683.727 676.509 682.953 681.1 Z"
opacity="1" fill="rgb(28,35,48)" fill-rule="evenodd" />
<path d="
M 699.429 595.094
C 700.842 589.546 702.034 584.367 705.182 579.458
C 712.711 567.716 726.702 561.538 740.418 562.624
C 747.606 563.194 754.958 565.6 760.607 570.179
C 761.843 571.18 763.004 572.259 764.143 573.367
C 764.516 573.729 765.332 574.293 765.376 574.831
C 763.353 577.423 760.657 579.508 758.464 581.972
C 758.015 582.477 756.919 584.385 756.208 584.29
C 752.467 580.746 749.599 577.804 744.431 576.356
C 740.773 575.33 736.831 574.903 733.07 575.59
C 710.113 579.788 706.263 614.534 727.641 623.689
C 730.27 624.814 733.154 625.487 736.016 625.573
C 741.177 625.729 745.989 624.239 750.305 621.433
C 752.141 620.24 754.096 617.615 756.074 616.893
C 758.345 618.698 760.668 620.707 762.791 622.69
C 763.474 623.328 764.928 624.338 765.048 625.307
C 761.235 629.498 756.392 633.325 751.113 635.466
C 737.354 641.047 719.688 638.458 709.374 627.22
C 704.794 622.23 701.603 615.726 700.136 609.141
C 699.126 604.61 698.766 599.71 699.429 595.094 Z"
opacity="1" fill="rgb(238,119,41)" fill-rule="evenodd" />
<path d="
M 712.866 672.974
C 712.893 672.804 712.92 672.634 712.948 672.464
C 713.834 672.426 714.736 672.374 715.624 672.394
C 716.112 673.417 715.698 675.169 715.691 676.278
C 715.671 679.842 714.606 684.551 716.114 687.891
C 718.083 692.253 723.291 690.338 725.266 686.987
C 726.059 685.64 725.89 684.052 725.975 682.552
C 726.156 679.369 725.718 675.848 726.401 672.744
C 727.279 672.667 728.102 672.504 728.927 672.879
C 728.671 677.183 728.666 681.826 728.903 686.139
C 728.999 687.894 729.866 690.914 728.748 692.411
C 728.037 692.695 727.345 692.832 726.583 692.891
C 726.421 692.413 726.454 689.161 726.312 689.3
C 725.108 690.65 723.944 691.968 722.186 692.603
C 718.301 694.004 714.736 692.254 713.415 688.456
C 712.7 686.4 712.844 684.149 712.845 682.006
C 712.846 679.007 712.721 675.966 712.866 672.974 Z"
opacity="1" fill="rgb(25,32,49)" fill-rule="evenodd" />
<path d="
M 733.871 689.612
C 734.295 689.041 734.714 688.508 735.218 688.005
C 736.621 688.053 738.359 690.036 739.897 690.446
C 742.235 691.071 748.005 689.377 745.385 686.077
C 742.435 682.361 732.269 683.766 734.343 676.454
C 735.666 671.791 741.409 671.33 745.09 673.094
C 745.776 673.423 748.229 674.574 748.326 675.368
C 747.918 675.787 747.171 676.559 746.533 676.563
C 745.602 676.569 744.631 675.618 743.821 675.25
C 741.833 674.347 738.622 674.511 737.316 676.527
C 736.05 678.481 737.762 680.007 739.543 680.548
C 742.978 681.592 750.274 683.1 748.95 688.262
C 747.783 692.81 742.478 693.828 738.495 692.91
C 736.825 692.525 734.533 691.275 733.871 689.612 Z"
opacity="1" fill="rgb(31,35,47)" fill-rule="evenodd" />
<path d="
M 751.941 680.574
C 753.485 674.752 760.2 668.789 766.045 673.949
C 767.212 674.979 768.146 676.439 768.83 677.827
C 769.734 679.662 769.354 681.492 769.335 683.437
C 766.111 683.123 762.752 683.342 759.512 683.338
C 757.906 683.336 756.074 682.901 754.635 683.743
C 754.791 684.618 754.665 685.569 755.049 686.399
C 756.4 689.322 760.364 690.855 763.372 690.024
C 765.023 689.567 765.991 688.099 767.528 687.56
C 768.157 687.867 768.818 688.121 768.764 688.915
C 767.717 692.62 762.743 693.358 759.553 692.763
C 754.389 691.8 750.392 685.704 751.941 680.574 Z
M 754.963 680.083
C 754.837 680.811 754.685 680.582 755.088 680.897
C 758.863 680.726 762.581 680.931 766.321 680.287
C 766.663 676.595 762.368 673.914 759.072 675.017
C 756.666 675.821 755.626 677.835 754.963 680.083 Z"
opacity="1" fill="rgb(33,37,50)" fill-rule="evenodd" />
<path d="
M 780.977 563.805
C 787.447 562.958 794.479 563.748 801.007 563.751
C 812.062 563.756 823.186 563.386 834.234 563.751
C 833.775 567.768 833.841 572.774 834.223 576.803
C 831.239 577.152 828.009 576.832 825 576.844
C 818.667 576.871 812.335 576.897 806.003 576.925
C 802.486 576.94 797.73 576.108 794.388 577.331
C 794.298 582.834 794.031 588.489 794.57 593.969
C 802.367 593.689 810.204 593.825 818.007 593.848
C 821.35 593.858 825.676 593.143 828.904 593.968
C 829.062 597.978 828.811 602.235 829.191 606.213
C 817.702 606.384 806.191 605.865 794.708 606.168
C 794.206 607.981 794.464 610.029 794.458 611.898
C 794.445 615.874 794.751 619.858 794.671 623.823
C 795.866 624.073 797.278 623.82 798.504 623.817
C 801.338 623.811 804.172 623.829 807.007 623.825
C 816.048 623.811 825.089 623.736 834.127 623.985
C 834.534 627.018 834.607 629.995 834.656 633.057
C 834.676 634.271 834.945 635.836 834.379 636.955
C 822.43 637.05 810.462 636.937 798.502 636.915
C 792.717 636.904 786.661 636.395 780.906 636.958
C 780.34 634.793 780.822 631.76 780.82 629.503
C 780.816 624.17 780.799 618.837 780.794 613.504
C 780.78 596.976 780.22 580.311 780.977 563.805 Z"
opacity="1" fill="rgb(236,120,42)" fill-rule="evenodd" />
<path d="
M 783.282 666.026
C 783.674 665.108 784.377 664.349 785.357 664.083
C 787.166 664.289 787.99 666.437 786.788 667.887
C 786.353 668.262 785.961 668.662 785.438 668.912
C 784.198 668.557 783.401 667.25 783.282 666.026 Z"
opacity="1" fill="rgb(11,17,24)" fill-rule="evenodd" />
<path d="
M 783.942 674.095
C 784.05 673.628 784.184 673.174 784.288 672.705
C 785.05 672.622 785.731 672.705 786.434 673.021
C 787.001 674.568 786.646 676.38 786.639 677.994
C 786.622 681.495 786.598 684.994 786.673 688.496
C 786.698 689.641 786.968 692.528 785.874 693.255
C 783.4 692.847 783.94 690.439 783.938 688.502
C 783.935 683.723 783.669 678.864 783.942 674.095 Z"
opacity="1" fill="rgb(21,27,44)" fill-rule="evenodd" />
<path d="
M 790.343 672.354
C 791.43 672.31 792.54 672.198 793.627 672.1
C 794.032 670.463 793.871 668.323 793.858 666.632
C 794.733 666.462 796.017 666.387 796.378 667.261
C 796.653 668.767 796.234 671.191 796.911 672.479
C 798.368 672.37 801.197 672.072 802.472 672.85
C 802.486 673.331 802.836 674.444 802.411 674.79
C 800.694 674.704 798.733 674.719 797.041 675.047
C 796.673 678.35 796.766 681.703 796.785 685.027
C 796.791 686.135 796.502 687.894 797.055 688.891
C 798.15 690.864 800.986 690.549 802.698 689.701
C 803.059 690.454 803.03 691.908 802.743 692.686
C 801.02 693.07 797.183 693.572 795.704 692.298
C 794.198 691.003 794.017 688.561 793.961 686.734
C 793.842 682.869 794.169 679.024 793.989 675.167
C 792.812 675.157 791.621 674.843 790.439 674.951
C 790.11 674.198 790.182 673.391 790.064 672.588
C 790.157 672.51 790.25 672.432 790.343 672.354 Z"
opacity="1" fill="rgb(34,38,57)" fill-rule="evenodd" />
<path d="
M 816.469 672.931
C 816.56 672.839 816.652 672.746 816.743 672.653
C 818.293 672.829 818.844 673.402 819.11 674.921
C 819.68 675.126 821.209 673.011 821.845 672.67
C 823.588 671.734 826.23 671.832 828.041 672.453
C 835.936 675.157 835.456 689.384 828.208 692.417
C 826.386 693.179 824.176 693.189 822.335 692.473
C 821.535 692.162 819.898 690.79 819.189 691.105
C 819.215 694.341 818.8 697.599 818.847 700.832
C 818.089 700.817 817.36 700.756 816.604 700.69
C 816.116 700.172 816.243 699.182 816.255 698.51
C 816.285 696.843 816.274 695.175 816.274 693.508
C 816.272 686.799 815.518 679.574 816.469 672.931 Z
M 819.453 679.09
C 818.912 681.279 818.51 685.295 819.827 687.237
C 823.128 692.102 828.977 690.417 830.291 685.092
C 831.077 681.907 830.636 677.911 828.082 675.623
C 825.031 672.891 820.337 675.513 819.453 679.09 Z"
opacity="1" fill="rgb(32,35,49)" fill-rule="evenodd" />
<path d="
M 838.962 673.594
C 839.181 673.092 839.061 673.409 839.263 672.624
C 840.095 672.595 840.85 672.683 841.672 672.752
C 842.125 673.464 841.756 674.786 841.802 675.624
C 842.042 675.793 843.907 673.613 844.288 673.398
C 845.998 672.436 847.716 672.546 849.596 672.78
C 849.94 673.336 849.445 674.254 848.913 674.562
C 846.895 675.73 845.517 675.428 843.976 677.525
C 843.241 678.562 842.214 679.836 841.95 681.108
C 841.646 682.575 841.948 684.253 841.949 685.742
C 841.95 688.078 841.694 690.436 841.728 692.76
C 840.889 692.896 840.085 692.77 839.246 692.687
C 838.416 691.575 838.924 689.055 838.869 687.708
C 838.684 683.186 838.316 678.074 838.962 673.594 Z"
opacity="1" fill="rgb(34,39,52)" fill-rule="evenodd" />
<path d="
M 846.414 626.038
C 849.23 623.265 850.642 619.416 853.506 616.709
C 854.751 617.148 855.787 618.357 856.915 619.073
C 859.898 620.964 863.017 622.803 866.339 624.03
C 871.418 625.906 877.481 626.358 882.498 624.039
C 887.3 621.82 888.793 615.777 885.239 611.675
C 882.345 608.337 876.591 607.445 872.52 606.429
C 862.542 603.941 851.611 600.769 849.187 589.404
C 848.638 586.831 848.594 583.949 848.919 581.34
C 849.185 579.206 849.738 577.123 850.658 575.175
C 856.631 562.529 872.244 561.742 884.149 564.6
C 887.892 565.499 892.137 567.088 895.272 569.359
C 896.318 570.117 897.775 570.972 898.302 572.193
C 898.177 573.451 896.755 574.677 896.075 575.695
C 894.645 577.836 893.61 579.858 892.683 582.23
C 891.733 582.344 890.793 582.113 889.852 582.148
C 889.434 581.661 889.439 581.031 888.962 580.574
C 883.036 577.294 875.648 574.065 868.731 575.843
C 863.43 577.205 859.664 583.222 863.612 588.063
C 866.083 591.093 870.837 592.007 874.379 593.157
C 884.316 596.383 895.929 598.484 899.627 609.72
C 900.31 611.796 900.522 614.028 900.643 616.199
C 901.509 631.697 885.118 639.278 871.789 638.083
C 865.029 637.476 857.797 634.819 852.085 631.184
C 849.947 629.824 848.26 627.789 846.173 626.476
C 846.253 626.33 846.334 626.184 846.414 626.038 Z"
opacity="1" fill="rgb(238,121,43)" fill-rule="evenodd" />
<path d="
M 851.471 681.604
C 851.67 679.95 852.242 678.159 853.015 676.687
C 855.729 671.52 862.668 670.909 866.734 674.82
C 869.356 677.342 870.518 681.383 870.076 684.938
C 869.328 690.963 862.036 694.934 856.534 692.117
C 853.111 690.365 851.023 685.315 851.471 681.604 Z
M 854.475 681.104
C 854.055 683.822 854.813 687.248 857.025 689.049
C 860.904 692.207 866.191 689.442 866.902 684.842
C 867.397 681.646 866.226 677.349 863.324 675.584
C 859.139 673.04 855.105 677.02 854.475 681.104 Z"
opacity="1" fill="rgb(29,34,46)" fill-rule="evenodd" />
<path d="
M 874.725 672.808
C 875.309 672.281 876.495 672.091 877.244 672.387
C 877.402 673.167 877.31 674.103 877.359 674.912
C 877.9 675.117 879.689 673.225 880.34 672.92
C 882.756 671.79 885.217 671.75 887.566 673.074
C 895.433 677.51 893.209 690.175 885.223 693.014
C 883.246 693.717 881.589 692.577 879.919 691.69
C 879.335 691.38 878.666 690.754 878.015 690.819
C 877.879 694.157 878.05 697.579 877.513 700.877
C 876.717 700.802 875.643 700.783 875.065 700.214
C 874.409 696.286 875.109 692.069 875.066 688.102
C 875.011 683.029 874.551 677.875 874.725 672.808 Z
M 877.969 680.115
C 877.781 682.096 877.181 685.871 878.44 687.541
C 882.022 692.289 889.025 689.703 889.434 683.932
C 889.614 681.403 888.989 677.568 886.935 675.855
C 883.363 672.875 878.37 675.9 877.969 680.115 Z"
opacity="1" fill="rgb(35,37,50)" fill-rule="evenodd" />
<path d="
M 895.527 681.845
C 895.627 681.798 895.726 681.75 895.826 681.703
C 896.678 678.585 897.293 675.818 900.078 673.772
C 901.023 673.078 902.092 672.527 903.249 672.3
C 910.143 670.942 913.715 677.444 913.336 683.407
C 908.643 683.215 903.75 683.004 899.074 683.422
C 897.773 686.456 900.905 689.256 903.573 689.973
C 906.543 690.772 908.773 689.61 910.92 687.66
C 911.779 687.697 912.397 688.369 912.891 689.034
C 911.538 693.293 904.93 693.615 901.598 692.093
C 897.534 690.238 895.843 686.107 895.527 681.845 Z
M 899.452 678.575
C 899.31 679.272 899.227 679.97 899.151 680.677
C 899.894 681.128 901.139 680.922 902.001 680.912
C 904.363 680.885 908.146 681.347 910.313 680.347
C 910.91 677.384 908.016 674.936 905.299 674.819
C 902.649 674.704 900.455 676.139 899.452 678.575 Z"
opacity="1" fill="rgb(36,38,51)" fill-rule="evenodd" />
<path d="
M 912.668 625.985
C 914.25 624.404 915.558 622.625 916.75 620.736
C 917.672 619.277 918.461 617.615 920.045 616.779
C 920.694 617.032 921.016 617.761 921.548 618.222
C 922.465 619.017 923.58 619.619 924.614 620.247
C 930.221 623.653 936.201 626.459 942.957 625.632
C 948.702 624.928 954.374 621.641 952.615 614.993
C 952.324 613.893 951.85 612.857 951.109 611.985
C 948.381 608.771 943.099 607.969 939.265 606.829
C 930.013 604.077 919.484 601.998 915.907 591.803
C 915.312 590.108 914.954 588.362 914.825 586.57
C 914.633 583.914 914.603 581.13 915.302 578.544
C 919.227 564.019 935.842 561.501 948.47 564.243
C 952.649 565.151 957.306 566.816 960.798 569.33
C 961.519 569.849 964.096 571.252 963.912 572.269
C 962.364 575.936 959.197 578.918 957.732 582.666
C 951.096 578.913 944.069 574.386 936.01 575.514
C 930.423 576.297 925.068 582.287 929.051 587.794
C 931.791 591.58 938.201 592.81 942.423 594.081
C 951.178 596.714 961.552 599.28 965.229 608.719
C 966.054 610.837 966.366 613.035 966.577 615.283
C 966.851 618.217 966.247 621.269 965.246 624.019
C 959.482 639.863 938.671 640.423 925.419 634.994
C 921.871 633.54 917.897 632.079 915.076 629.373
C 914.229 628.561 912.883 627.122 912.668 625.985 Z"
opacity="1" fill="rgb(238,121,43)" fill-rule="evenodd" />
<path d="
M 917.962 674.611
C 918.02 673.957 918.073 673.308 918.161 672.656
C 919.131 672.689 920.189 672.86 921.152 672.786
C 921.505 673.643 920.947 675.448 920.687 676.302
C 921.358 676.176 922.153 675.078 922.635 674.6
C 924.012 673.234 927.373 671.433 929.203 673.038
C 929.238 673.64 929.411 674.283 928.942 674.729
C 925.904 675.131 924.246 676.236 922.343 678.634
C 919.064 682.408 922.716 688.391 920.832 692.734
C 920.071 692.787 918.919 692.997 918.305 692.519
C 917.277 686.89 917.709 680.311 917.962 674.611 Z"
opacity="1" fill="rgb(34,38,53)" fill-rule="evenodd" />
<path d="
M 932.959 665.098
C 933.106 664.615 933.244 664.21 933.452 663.737
C 934.193 663.601 934.9 663.54 935.651 663.502
C 936.275 666.893 935.94 670.564 935.932 673.998
C 935.92 679.255 936.095 684.493 936.211 689.744
C 937.182 690.295 938.719 689.453 939.6 690.124
C 939.781 690.809 940.153 692.032 939.55 692.563
C 937.534 693.148 934.767 693.146 933.729 690.997
C 932.585 688.63 933.19 684.889 933.18 682.323
C 933.159 676.578 932.652 670.854 932.959 665.098 Z"
opacity="1" fill="rgb(36,38,50)" fill-rule="evenodd" />
<path d="
M 941.292 672.387
C 941.924 672.44 942.922 672.383 943.47 672.808
C 944.493 673.6 945 675.287 945.51 676.423
C 946.685 679.035 947.969 681.588 949.004 684.262
C 949.426 685.353 949.997 686.437 950.301 687.565
C 950.403 687.942 950.387 688.864 950.782 688.981
C 951.914 688.241 952.274 685.395 952.701 684.136
C 953.879 680.662 954.876 675.725 957.179 672.829
C 957.8 672.425 959.059 672.148 959.761 672.53
C 959.512 673.369 959.105 674.152 958.801 674.971
C 957.314 678.836 955.848 682.702 954.422 686.594
C 953.89 687.893 953.321 689.191 952.815 690.499
C 951.472 693.861 950.544 697.965 947.32 700.082
C 945.674 700.515 943.891 700.24 942.216 700.178
C 941.646 699.491 941.458 698.188 941.806 697.36
C 943.055 697.363 944.605 697.812 945.82 697.543
C 948.596 696.929 949.132 692.884 948.431 690.734
C 947.263 687.146 945.852 683.603 944.214 680.201
C 943.078 677.841 941.228 675.071 941.292 672.387 Z"
opacity="1" fill="rgb(31,37,53)" fill-rule="evenodd" />

</svg>